<svg id="Layer_1" data-name="Layer 1" xmlns="http://www.w3.org/2000/svg" viewBox="0 0 100 30.46"><defs><style>.cls-1{fill:#003149;}</style></defs><path class="cls-1" d="M43.54,22.15a6.72,6.72,0,0,1-2.81-.52A4.43,4.43,0,0,1,39,20.3a3.15,3.15,0,0,1-.64-1.72.38.38,0,0,1,.12-.28.41.41,0,0,1,.3-.13h1a.46.46,0,0,1,.35.12.46.46,0,0,1,.15.27,2.51,2.51,0,0,0,.48.91,2.84,2.84,0,0,0,1.05.75,4.42,4.42,0,0,0,1.76.3A4.06,4.06,0,0,0,46,19.93a1.86,1.86,0,0,0,.78-1.57,1.44,1.44,0,0,0-.41-1.08,3.67,3.67,0,0,0-1.26-.74,22.89,22.89,0,0,0-2.19-.71,12.83,12.83,0,0,1-2.33-.89,3.52,3.52,0,0,1-1.37-1.19,3.24,3.24,0,0,1-.46-1.81,3.21,3.21,0,0,1,.56-1.85,3.73,3.73,0,0,1,1.62-1.3,6.09,6.09,0,0,1,2.54-.48,6.24,6.24,0,0,1,2.08.31A4.66,4.66,0,0,1,47,9.47a3.84,3.84,0,0,1,.91,1.14,2.79,2.79,0,0,1,.32,1.18.45.45,0,0,1-.09.26.39.39,0,0,1-.31.12h-1a.61.61,0,0,1-.28-.07.52.52,0,0,1-.22-.29,2,2,0,0,0-.88-1.33,3.42,3.42,0,0,0-2-.54,3.81,3.81,0,0,0-2,.48,1.63,1.63,0,0,0-.78,1.5A1.65,1.65,0,0,0,41,13a3,3,0,0,0,1.16.76,18.56,18.56,0,0,0,2.05.69,15.26,15.26,0,0,1,2.52.89,3.6,3.6,0,0,1,1.46,1.18,3.21,3.21,0,0,1,.47,1.8A3.33,3.33,0,0,1,48,20.39a3.91,3.91,0,0,1-1.78,1.31A7.34,7.34,0,0,1,43.54,22.15Z"/><path class="cls-1" d="M56.5,22.15a6,6,0,0,1-2.93-.65,4.31,4.31,0,0,1-1.76-1.83,6.31,6.31,0,0,1-.65-2.73c0-.52,0-1.09,0-1.69s0-1.18,0-1.73a6.31,6.31,0,0,1,.65-2.73A4.31,4.31,0,0,1,53.57,9a6,6,0,0,1,2.93-.65,6.87,6.87,0,0,1,2.33.36,4.9,4.9,0,0,1,1.66,1,4.31,4.31,0,0,1,1.4,2.95.33.33,0,0,1-.11.28.41.41,0,0,1-.3.12h-1a.44.44,0,0,1-.3-.1.56.56,0,0,1-.19-.34,3,3,0,0,0-1.22-2.06,4.11,4.11,0,0,0-2.22-.56,3.35,3.35,0,0,0-2.46.88,3.92,3.92,0,0,0-1,2.79c0,1.06,0,2.13,0,3.24a3.92,3.92,0,0,0,1,2.79,3.35,3.35,0,0,0,2.46.88A4.11,4.11,0,0,0,58.72,20a3,3,0,0,0,1.22-2.06.56.56,0,0,1,.19-.34.44.44,0,0,1,.3-.1h1a.44.44,0,0,1,.3.11.31.31,0,0,1,.11.28,4.42,4.42,0,0,1-.39,1.57,4.34,4.34,0,0,1-1,1.39,4.9,4.9,0,0,1-1.66,1A6.87,6.87,0,0,1,56.5,22.15Z"/><path class="cls-1" d="M63.91,22a.37.37,0,0,1-.27-.11.37.37,0,0,1-.12-.27,1.8,1.8,0,0,1,0-.22L68.31,8.92a.77.77,0,0,1,.21-.31.64.64,0,0,1,.4-.11h1.31a.67.67,0,0,1,.41.11.77.77,0,0,1,.21.31L75.6,21.36a.93.93,0,0,1,0,.22.37.37,0,0,1-.12.27.4.4,0,0,1-.27.11h-1a.48.48,0,0,1-.34-.11.8.8,0,0,1-.14-.22L72.73,18.9H66.42l-1,2.73a.5.5,0,0,1-.14.22.48.48,0,0,1-.34.11ZM67,17.25h5.19l-2.59-6.83Z"/><path class="cls-1" d="M78.62,22a.45.45,0,0,1-.33-.12.45.45,0,0,1-.12-.32V9a.49.49,0,0,1,.12-.34.45.45,0,0,1,.33-.12h4.69a5.34,5.34,0,0,1,3.44,1,3.62,3.62,0,0,1,1.27,3A3.77,3.77,0,0,1,87.28,15a3.81,3.81,0,0,1-2,1.3l3,5.11a.49.49,0,0,1,.06.22.35.35,0,0,1-.13.27.4.4,0,0,1-.27.11H87a.62.62,0,0,1-.48-.17,4.11,4.11,0,0,1-.27-.35l-2.79-4.88H80.06v5a.42.42,0,0,1-.13.32.45.45,0,0,1-.33.12Zm1.44-7h3.17a3.31,3.31,0,0,0,2.16-.6,2.26,2.26,0,0,0,.71-1.8,2.25,2.25,0,0,0-.71-1.79,3.18,3.18,0,0,0-2.16-.62H80.06Z"/><path class="cls-1" d="M91.69,22a.41.41,0,0,1-.32-.12.45.45,0,0,1-.12-.32V9a.49.49,0,0,1,.12-.34.41.41,0,0,1,.32-.12h7.85a.45.45,0,0,1,.33.12A.45.45,0,0,1,100,9v.77a.42.42,0,0,1-.13.33.49.49,0,0,1-.33.11H93.12v4.48h6a.44.44,0,0,1,.34.13.45.45,0,0,1,.13.33v.77a.44.44,0,0,1-.13.32.48.48,0,0,1-.34.13h-6v5.19a.46.46,0,0,1-.13.32.45.45,0,0,1-.34.12Z"/><path class="cls-1" d="M30.92,13.38V11.54A2.54,2.54,0,0,0,28.39,9H16.85V3.38a.67.67,0,0,0-.68-.68h-.91v-2A.68.68,0,0,0,14.58,0a.69.69,0,0,0-.69.68v2h-2v-2a.69.69,0,0,0-1.37,0v2h-2v-2A.68.68,0,0,0,7.91,0a.69.69,0,0,0-.69.68v2h-2v-2a.69.69,0,0,0-1.37,0v2H3a.67.67,0,0,0-.68.68V9A2.53,2.53,0,0,0,0,11.54v1.84a2.54,2.54,0,0,0,.8,1.85A2.54,2.54,0,0,0,0,17.08v1.84a2.54,2.54,0,0,0,2.53,2.54H14.07v5.62a.68.68,0,0,0,.68.68h.91v2a.69.69,0,0,0,1.37,0v-2h2v2a.68.68,0,0,0,1.36,0v-2h2v2a.69.69,0,0,0,1.37,0v-2h2v2a.68.68,0,0,0,1.36,0v-2h.91a.68.68,0,0,0,.69-.68V21.44a2.52,2.52,0,0,0,2.29-2.52V17.08a2.5,2.5,0,0,0-.8-1.85A2.5,2.5,0,0,0,30.92,13.38ZM3.66,4.07H15.49V9H3.66Zm23.6,22.32H15.44V21.46H27.26v4.93Zm2.3-13a1.17,1.17,0,0,1-1.17,1.17H21.58a.68.68,0,1,0,0,1.36h6.81a1.17,1.17,0,0,1,1.17,1.17v1.84a1.17,1.17,0,0,1-1.17,1.17H2.53a1.16,1.16,0,0,1-1.16-1.17V17.08a1.17,1.17,0,0,1,1.16-1.17H9.35a.68.68,0,0,0,0-1.36H2.53a1.17,1.17,0,0,1-1.16-1.17V11.54a1.16,1.16,0,0,1,1.16-1.17H28.39a1.17,1.17,0,0,1,1.17,1.17Z"/></svg>